PathFileType	4	(X/Y/Z)	C:\Users\IEUser\Desktop\02761_POST\experimental_data\task.trc
DataRate	CameraRate	NumFrames	NumMarkers	Units	OrigDataRate	OrigDataStartFrame	OrigNumFrames
100.000000	100.000000	4	51	mm	100.000000	45	361
Frame#	Time	C7			CLAV			LANK			LASI			LBHD			LELB			LFHD			LFIN			LFMH			LHEE			LKNE			LMED			LMET			LMIF			LPSI			LSHO			LTAD			LTHAP			LTHI			LTIAD			LTIB			LTOE			LTTU			LWRA			LWRB			RANK			RASI			RBAK			RBHD			RELB			RFHD			RFIN			RFMH			RHEE			RKNE			RMED			RMET			RMIF			RPSI			RSHO			RTAD			RTHAP			RTHI			RTIAD			RTIB			RTOE			RTTU			RWRA			RWRB			STRN			T10			
		X1	Y1	Z1	X2	Y2	Z2	X3	Y3	Z3	X4	Y4	Z4	X5	Y5	Z5	X6	Y6	Z6	X7	Y7	Z7	X8	Y8	Z8	X9	Y9	Z9	X10	Y10	Z10	X11	Y11	Z11	X12	Y12	Z12	X13	Y13	Z13	X14	Y14	Z14	X15	Y15	Z15	X16	Y16	Z16	X17	Y17	Z17	X18	Y18	Z18	X19	Y19	Z19	X20	Y20	Z20	X21	Y21	Z21	X22	Y22	Z22	X23	Y23	Z23	X24	Y24	Z24	X25	Y25	Z25	X26	Y26	Z26	X27	Y27	Z27	X28	Y28	Z28	X29	Y29	Z29	X30	Y30	Z30	X31	Y31	Z31	X32	Y32	Z32	X33	Y33	Z33	X34	Y34	Z34	X35	Y35	Z35	X36	Y36	Z36	X37	Y37	Z37	X38	Y38	Z38	X39	Y39	Z39	X40	Y40	Z40	X41	Y41	Z41	X42	Y42	Z42	X43	Y43	Z43	X44	Y44	Z44	X45	Y45	Z45	X46	Y46	Z46	X47	Y47	Z47	X48	Y48	Z48	X49	Y49	Z49	X50	Y50	Z50	X51	Y51	Z51	

46	0.45	-1719.275756835938	1317.248657226563	-270.4491882324219	-1616.080078125	1235.005981445313	-252.4241485595704	-1924.967163085938	74.99468231201173	-289.2881774902344	-1667.49462890625	864.187438964844	-366.6544799804688	-1710.761474609375	1451.915161132813	-323.7547302246094	-1650.629028320313	982.295593261719	-492.6360168457032	-1588.48291015625	1483.20703125	-302.1025390625001	-1419.416870117188	822.3103637695315	-422.4008789062501	-1806.158935546875	39.35910415649415	-223.9401092529297	-1973.84912109375	67.99893951416017	-245.7614288330079	-1776.486694335938	455.1347045898439	-352.6524658203126	-1902.890747070313	90.0651321411133	-213.3101501464844	-1832.120971679688	23.67595100402832	-310.3415527343751	-1848.769897460938	76.77085113525392	-267.7484436035157	-1814.683959960938	912.622497558594	-296.9291381835938	-1680.261962890625	1262.453369140625	-408.0522460937501	-1664.543090820313	582.3850097656251	-316.5440673828126	-1659.101806640625	648.5799560546876	-331.0587158203126	-1752.941284179688	569.0991821289064	-420.9741516113282	-1832.929112752279	174.269011815389	-284.2453257242839	-1844.675659179688	260.9132385253907	-377.1519470214844	-1811.3271484375	43.20405960083009	-272.3793640136719	-1755.576538085938	374.1431884765626	-303.5927124023438	-1468.789184570313	845.5510864257815	-398.6710510253907	-1473.072143554688	813.498962402344	-454.7328491210939	-1568.5947265625	89.77832031250001	-140.6081848144532	-1671.037353515625	859.3085937500002	-154.368881225586	-1766.485107421875	1189.371215820313	-155.0777130126953	-1734.187622070313	1432.076782226563	-198.9302368164063	-1690.695922851563	1012.38134765625	-47.75059890747071	-1580.360595703125	1474.921020507813	-189.2737426757813	-1566.10302734375	755.1036987304689	-21.32669258117676	-1437.352416992188	53.16000747680665	-183.7664337158203	-1606.066162109375	85.94322967529298	-194.8403930664063	-1538.615356445313	489.9638061523439	-123.5658416748047	-1531.312866210938	107.3557968139649	-210.7144012451172	-1472.909790039063	45.43317794799805	-115.183090209961	-1488.076538085938	96.52301025390628	-155.7363586425782	-1814.886352539063	911.5606079101565	-208.6254577636719	-1692.286743164063	1291.28076171875	-117.4089889526367	-1530.895751953125	620.6622314453126	-194.3334197998047	-1599.366821289063	721.0346679687501	-196.3538208007813	-1603.24462890625	596.6052856445314	-71.02575683593751	-1502.375	281.4976501464844	-171.3724212646485	-1565.919555664063	283.3992004394532	-82.48472595214845	-1449.757690429688	58.90179824829103	-145.4438018798828	-1485.206787109375	414.8706665039064	-166.7135620117188	-1575.656982421875	811.0667114257815	-68.46923828125001	-1609.25439453125	797.609313964844	-16.05386924743653	-1598.019775390625	1047.4765625	-248.3676452636719	-1788.856689453125	1012.484069824219	-253.8995208740235	
47	0.46	-1708.949584960938	1316.012329101563	-270.6297302246094	-1605.874389648438	1233.715698242188	-252.5613403320313	-1924.427734375	76.09124755859376	-289.4070739746094	-1657.891235351563	863.067810058594	-366.8708801269532	-1700.640258789063	1450.2568359375	-324.3975219726563	-1639.29541015625	981.021179199219	-492.4544372558595	-1578.440795898438	1481.912475585938	-302.7047424316407	-1408.00244140625	822.6309204101565	-419.2611694335939	-1806.342041015625	39.79789352416993	-223.8863067626954	-1973.299560546875	69.88111877441408	-245.8209533691407	-1772.654541015625	455.1630859375001	-353.3338317871094	-1902.113403320313	91.27245330810548	-213.5876007080079	-1832.06396484375	23.61856079101563	-310.3213500976563	-1848.181640625	77.16329193115236	-268.1470947265626	-1804.843994140625	911.6326293945315	-296.5063781738282	-1669.73486328125	1261.215576171875	-408.2097167968751	-1658.580810546875	580.9648437500001	-317.2102355957032	-1652.509399414063	646.7460937500001	-331.7775878906251	-1747.291015625	568.9587402343751	-421.4321594238282	-1827.547678629558	175.2384936014811	-285.6960652669271	-1842.867797851563	261.5620117187501	-377.5773010253907	-1811.068481445313	43.14237213134766	-272.5534362792969	-1752.324829101563	373.8882446289063	-304.5268554687501	-1457.671630859375	845.7326660156252	-396.1218566894532	-1461.262451171875	813.3279418945315	-451.9222106933595	-1541.45556640625	85.6635208129883	-144.5105285644532	-1660.896728515625	857.9981079101565	-154.3982543945313	-1756.297729492188	1188.234375	-155.292221069336	-1724.137817382813	1430.763793945313	-199.5388793945313	-1681.4951171875	1011.2060546875	-47.66850280761719	-1570.4287109375	1474.008422851563	-189.847885131836	-1559.382446289063	752.7944335937501	-19.98524856567383	-1409.63818359375	55.00745010375978	-190.293701171875	-1579.28125	80.86431884765626	-198.6871337890626	-1530.36279296875	487.2789916992189	-125.5872573852539	-1506.1591796875	105.5934600830078	-214.8404235839844	-1443.481201171875	44.50500488281251	-121.4635009765625	-1461.714477539063	95.79627227783205	-160.4883880615235	-1804.91650390625	910.364440917969	-208.2031402587891	-1681.995239257813	1290.030639648438	-117.5391616821289	-1521.760375976563	618.8161621093751	-193.7343750000001	-1589.529907226563	719.2383422851564	-195.8507080078126	-1597.616333007813	592.2664794921876	-72.69115447998048	-1484.880615234375	280.4888610839844	-174.7140197753907	-1548.11572265625	279.5107421875001	-85.33721160888673	-1421.341796875	59.47912597656251	-151.8701324462891	-1473.703857421875	414.3739318847657	-168.9924926757813	-1568.45166015625	808.684265136719	-67.20468139648439	-1602.102416992188	795.8196411132815	-14.96638202667237	-1588.063232421875	1046.215087890625	-248.4921417236329	-1779.1376953125	1011.449157714844	-253.6741638183594	
48	0.47	-1698.536987304688	1314.691528320313	-270.7353515625001	-1595.576904296875	1232.346069335938	-252.6695251464844	-1923.841674804688	77.29916381835939	-289.4815368652344	-1648.052124023438	861.8598632812502	-367.0493164062501	-1690.455932617188	1448.505859375	-324.9432373046876	-1627.991088867188	979.725036621094	-492.2350463867189	-1568.33154296875	1480.529174804688	-303.2731628417969	-1396.772705078125	822.500427246094	-416.5418395996095	-1806.416137695313	40.22758102416993	-223.9226837158204	-1972.71875	71.93386840820314	-245.8310089111329	-1768.55859375	455.1748657226564	-353.9002075195313	-1901.235595703125	92.51808929443361	-213.8034820556641	-1831.998779296875	23.57332038879395	-310.2463073730469	-1847.61328125	77.64124298095705	-268.5010681152344	-1794.822143554688	910.4906005859377	-296.0113525390626	-1659.151000976563	1259.95849609375	-408.3164062500001	-1652.469848632813	579.5570678710939	-317.6706542968751	-1645.495971679688	644.9801635742189	-332.2808532714844	-1741.31494140625	568.7353515625001	-421.8076477050782	-1822.166244506836	176.2079753875733	-287.1468048095704	-1840.93212890625	262.2752990722657	-377.9100036621094	-1810.813354492188	43.08869552612305	-272.6983642578126	-1748.888793945313	373.6181945800782	-305.3258361816407	-1446.682373046875	845.524597167969	-393.9066772460939	-1449.683349609375	812.830749511719	-449.4542236328126	-1515.591796875	81.9347381591797	-148.796615600586	-1650.570556640625	856.6335449218752	-154.3545989990235	-1745.985473632813	1186.955810546875	-155.4528503417969	-1713.962524414063	1429.361328125	-200.037338256836	-1672.135986328125	1009.881225585938	-47.54950332641602	-1560.343383789063	1473.006225585938	-190.4021453857422	-1552.491821289063	750.3806762695314	-18.60988426208496	-1383.366088867188	56.97680664062501	-196.9391632080079	-1553.494262695313	76.34049224853517	-202.7249755859376	-1522.338012695313	484.246063232422	-127.706901550293	-1482.01025390625	104.2253494262696	-219.1160430908204	-1415.4462890625	43.6714096069336	-128.0114440917969	-1436.588134765625	95.24327850341798	-165.3304138183594	-1794.759399414063	909.0122680664065	-207.7534942626954	-1671.597900390625	1288.639038085938	-117.6140518188477	-1512.656372070313	616.5433349609376	-193.1167449951172	-1579.43115234375	717.1798095703126	-195.1027984619141	-1591.991333007813	587.6312255859376	-74.36746978759767	-1468.154541015625	279.3869934082032	-178.0966491699219	-1531.38623046875	275.7434082031251	-88.50355529785158	-1394.355346679688	60.15747833251955	-158.4065246582032	-1462.632934570313	413.5404052734376	-171.328125	-1561.077026367188	806.1897583007815	-65.90116119384767	-1594.7900390625	793.9212646484377	-13.85119533538819	-1577.962280273438	1044.884033203125	-248.6667938232422	-1769.263061523438	1010.295104980469	-253.4447479248047	
49	0.48	-1688.048095703125	1313.296142578125	-270.7666320800782	-1585.183837890625	1230.905517578125	-252.7494506835938	-1923.205932617188	78.64474487304689	-289.5097961425782	-1637.955810546875	860.5552978515627	-367.2018737792969	-1680.21142578125	1446.678588867188	-325.3815612792969	-1616.712768554688	978.4121704101565	-491.9800720214845	-1558.152587890625	1479.064575195313	-303.7964172363282	-1385.721435546875	821.914245605469	-414.2327880859376	-1806.351684570313	40.59803009033204	-224.0550231933594	-1972.117065429688	74.18236541748048	-245.8041992187501	-1764.166137695313	455.1596984863282	-354.3465881347657	-1900.253662109375	93.8057327270508	-213.9651641845704	-1831.933715820313	23.55084800720215	-310.1242065429688	-1847.053588867188	78.21478271484376	-268.7845153808594	-1784.590698242188	909.1909790039065	-295.4628295898438	-1648.514526367188	1258.681274414063	-408.3715820312501	-1646.132690429688	578.1330566406251	-317.9725646972657	-1638.051879882813	643.2382202148439	-332.6308288574219	-1734.994018554688	568.4182739257814	-422.1016235351564	-1816.784810384115	177.1774571736654	-288.5975443522136	-1838.855346679688	263.0524597167969	-378.1535949707032	-1810.565673828125	43.04622650146485	-272.8170471191407	-1745.223510742188	373.3285217285157	-305.9957275390626	-1435.815185546875	844.9185180664065	-392.0137634277345	-1438.338134765625	812.0029907226565	-447.3351440429689	-1491.31494140625	78.5731887817383	-153.4794921875	-1640.045043945313	855.2234497070315	-154.2345123291016	-1735.566284179688	1185.543212890625	-155.5581359863282	-1703.662963867188	1427.87841796875	-200.4159698486329	-1662.639892578125	1008.410888671875	-47.3936882019043	-1550.111450195313	1471.911499023438	-190.9205322265625	-1545.408203125	747.8886108398439	-17.21944808959961	-1358.794189453125	58.84109115600587	-203.6551513671876	-1529.001586914063	72.37071990966798	-207.0087280273438	-1514.401000976563	480.9505310058595	-129.9012908935547	-1459.104125976563	103.1721878051758	-223.6019897460938	-1389.153076171875	42.80099487304688	-134.7737884521485	-1412.928955078125	94.73093414306642	-170.301986694336	-1784.399047851563	907.504089355469	-207.308090209961	-1661.109497070313	1287.11328125	-117.6337203979492	-1503.545166015625	613.8976440429689	-192.6114196777344	-1569.083251953125	714.8814086914064	-194.1769104003907	-1586.109741210938	582.8551025390626	-75.9988250732422	-1452.253295898438	278.1766967773438	-181.516357421875	-1515.883056640625	272.0463256835938	-91.99959564208986	-1369.093017578125	60.74774551391603	-165.0199432373047	-1451.9560546875	412.386688232422	-173.7371215820313	-1553.48583984375	803.613220214844	-64.6015090942383	-1587.310791015625	791.9267578125002	-12.72286605834961	-1567.716796875	1043.478149414063	-248.8895568847657	-1759.203125	1009.009704589844	-253.2260131835938	
